<svg width="80" height="80" viewBox="0 0 80 80" fill="none" xmlns="http://www.w3.org/2000/svg">
<path d="M62.9022 58.215C40.2302 58.215 21.7852 39.77 21.7852 17.098C21.7852 11.1918 23.0625 5.336 25.5 0C10.145 6.4531 0 21.551 0 38.379C0 61.332 18.672 80.004 41.625 80.004C58.453 80.004 73.551 69.859 80 54.5C74.6641 56.9375 68.8092 58.215 62.9022 58.215ZM41.7342 71.527C41.7108 71.527 41.6834 71.527 41.66 71.5231C23.996 70.2731 9.72998 56.0071 8.47998 38.3431C8.43701 37.7572 8.87842 37.2454 9.46826 37.2064C10.0503 37.1634 10.5621 37.6048 10.605 38.1947C11.7808 54.8077 25.199 68.2257 41.812 69.4017C42.3979 69.4446 42.8393 69.9524 42.8002 70.5384C42.7573 71.1009 42.2889 71.527 41.7342 71.527Z" fill="black"/>
</svg>
