<svg width="94"  height="82" viewBox="0 0 94 82" fill="none" xmlns="http://www.w3.org/2000/svg">
<path d="M46.8757 19.433C35.1177 19.433 25.5477 28.9994 25.5477 40.761C25.5477 52.519 35.1141 62.089 46.8757 62.089C58.6337 62.089 68.2037 52.5226 68.2037 40.761C68.2037 29.003 58.6334 19.433 46.8757 19.433ZM46.8757 59.652C36.4577 59.652 27.9847 51.1793 27.9847 40.761C27.9847 30.3427 36.4574 21.87 46.8757 21.87C57.294 21.87 65.7667 30.3427 65.7667 40.761C65.7667 51.1793 57.294 59.652 46.8757 59.652ZM45.6569 15.554V2.50302C45.6569 1.83114 46.1999 1.28422 46.8757 1.28422C47.5476 1.28422 48.0945 1.82719 48.0945 2.50302V15.558C48.0945 16.2299 47.5515 16.7768 46.8757 16.7768C46.2038 16.7729 45.6569 16.2259 45.6569 15.554ZM58.4229 18.3235L68.6499 0.612519C68.9858 0.0304892 69.7319 -0.16873 70.314 0.16721C70.8961 0.50315 71.0953 1.24921 70.7593 1.83131L60.5323 19.5423C60.3058 19.9329 59.8995 20.1517 59.4776 20.1517C59.2706 20.1517 59.0635 20.097 58.8721 19.9876C58.2862 19.6517 58.087 18.9056 58.4229 18.3235ZM68.0948 27.1047L79.3998 20.5774C79.9818 20.2415 80.7279 20.4407 81.0639 21.0227C81.3999 21.6048 81.2006 22.3508 80.6186 22.6868L69.3136 29.2141C69.1222 29.3235 68.9113 29.3782 68.7081 29.3782C68.2862 29.3782 67.8761 29.1594 67.6534 28.7688C67.3136 28.1868 67.5128 27.4407 68.0948 27.1047ZM81.0638 60.4997C80.8372 60.8903 80.431 61.1091 80.0091 61.1091C79.8021 61.1091 79.595 61.0544 79.4036 60.945L68.0986 54.4177C67.5166 54.0818 67.3174 53.3357 67.6533 52.7536C67.9893 52.1716 68.7353 51.9724 69.3174 52.3083L80.6224 58.8356C81.2005 59.1716 81.3997 59.9176 81.0638 60.4997ZM48.0948 65.9685V79.0235C48.0948 79.6954 47.5518 80.2423 46.876 80.2423C46.2041 80.2423 45.6572 79.6993 45.6572 79.0235V65.9685C45.6572 65.2966 46.2002 64.7497 46.876 64.7497C47.5479 64.7497 48.0948 65.2927 48.0948 65.9685ZM25.6568 54.4175L14.3518 60.9448C14.1604 61.0542 13.9495 61.1089 13.7463 61.1089C13.3245 61.1089 12.9143 60.8901 12.6916 60.4995C12.3557 59.9175 12.5549 59.1714 13.1369 58.8354L24.4419 52.3081C25.024 51.9722 25.77 52.1714 26.106 52.7534C26.4381 53.3354 26.2388 54.0815 25.6568 54.4175ZM12.6878 21.0225C13.0237 20.4405 13.7698 20.2413 14.3519 20.5772L25.6569 27.1045C26.2389 27.4404 26.4381 28.1865 26.1022 28.7686C25.8756 29.1592 25.4694 29.378 25.0475 29.378C24.8405 29.378 24.6334 29.3233 24.442 29.2139L13.137 22.6866C12.5511 22.3507 12.3519 21.6046 12.6878 21.0225ZM93.7498 40.7605C93.7498 41.4324 93.2068 41.9793 92.531 41.9793H72.082C71.4101 41.9793 70.8632 41.4364 70.8632 40.7605C70.8632 40.0886 71.4062 39.5417 72.082 39.5417H92.535C93.2069 39.5417 93.7498 40.0886 93.7498 40.7605ZM21.6678 41.9793H1.2188C0.54302 41.9793 0 41.4324 0 40.7605C0 40.0886 0.54297 39.5417 1.2188 39.5417H21.6718C22.3437 39.5417 22.8906 40.0847 22.8906 40.7605C22.8867 41.4324 22.3436 41.9793 21.6678 41.9793ZM22.992 1.82732C22.6561 1.24529 22.8553 0.499219 23.4373 0.163219C24.0193 -0.172721 24.7654 0.0265 25.1014 0.60853L35.3284 18.3195C35.6643 18.9016 35.4651 19.6476 34.8831 19.9836C34.6917 20.093 34.4808 20.1477 34.2776 20.1477C33.8558 20.1477 33.4456 19.9289 33.2229 19.5383L22.992 1.82732ZM70.758 79.6903C71.0939 80.2723 70.8947 81.0184 70.3127 81.3544C70.1213 81.4638 69.9104 81.5185 69.7072 81.5185C69.2853 81.5185 68.8752 81.2997 68.6525 80.9091L58.4255 63.1981C58.0896 62.6161 58.2888 61.87 58.8708 61.534C59.4529 61.1981 60.1989 61.3973 60.5349 61.9793L70.758 79.6903ZM35.328 63.1983L25.101 80.9093C24.8744 81.2999 24.4682 81.5187 24.0463 81.5187C23.8393 81.5187 23.6322 81.464 23.4408 81.3546C22.8588 81.0187 22.6596 80.2726 22.9955 79.6905L33.2225 61.9795C33.5585 61.3975 34.3045 61.1983 34.8866 61.5342C35.4647 61.8702 35.6639 62.6162 35.328 63.1983ZM63.168 40.7603C63.168 41.4322 62.625 41.9791 61.9492 41.9791C61.2773 41.9791 60.7304 41.4322 60.7304 40.7603C60.7304 33.1197 54.5156 26.9053 46.8754 26.9053C46.2035 26.9053 45.6566 26.3623 45.6566 25.6865C45.6566 25.0146 46.1996 24.4677 46.8754 24.4677C55.8598 24.4677 63.168 31.7759 63.168 40.7603Z" fill="white"/>
</svg>
